<?xml version="1.0"?>
<svg width="125" height="151" xmlns="http://www.w3.org/2000/svg" xmlns:svg="http://www.w3.org/2000/svg">
 <!-- Created with SVG-edit - http://svg-edit.googlecode.com/ -->

 <g>
  <title>Layer 1</title>
  <polygon id="svg_4" fill="#FF0000" points="10.5,13.078125 10.5,13.078125 10.5,13.078125 10.5,13.078125 10.5,13.078125 10.5,13.078125 " stroke="#000000" stroke-width="5"/>
  <polygon id="svg_5" fill="#FF0000" points="2.5,42.078121185302734 2.5,42.078121185302734 2.5,42.078121185302734 2.5,42.078121185302734 2.5,42.078121185302734 2.5,42.078121185302734 " stroke="#000000" stroke-width="5"/>
  <text id="svg_48" fill="#000000" stroke="#000000" stroke-width="0" stroke-dasharray="null" stroke-linejoin="null" stroke-linecap="null" x="58.5" y="8.17813" font-size="24" font-family="serif" text-anchor="middle" xml:space="preserve"/>
  <path id="svg_49" stroke="#000000" fill="#ff7f00" stroke-width="0" d="m63.49361,23.8865c3.94277,0.00338 7.70909,0.7229 11.2765,1.92548l-2.82314,5.14138l20.04104,0l-5.01106,-9.14099l-5.00785,-9.13422l-2.63706,4.81372c-4.94049,-1.90185 -10.26594,-2.96592 -15.83522,-2.96592c-25.63597,0 -46.41487,21.87958 -46.41487,48.87352c0,11.20497 3.61875,21.49785 9.64035,29.74366l7.05784,-5.70552c-4.8699,-6.66489 -7.79891,-14.98162 -7.81495,-24.03478c0.03529,-21.82553 16.80405,-39.48256 37.52842,-39.51634l0,0.00001zm36.77772,9.77944l-7.05783,5.70889c4.8699,6.6615 7.7989,14.97486 7.81174,24.03139c-0.03529,21.82215 -16.80406,39.47918 -37.52843,39.51634c-3.67327,-0.00675 -7.18616,-0.63507 -10.53542,-1.68564l2.65631,-4.83735l-20.04104,0l5.00785,9.13422l5.01106,9.14436l2.79425,-5.10423c4.73838,1.73631 9.81039,2.70582 15.10697,2.70918c25.63918,-0.00675 46.41487,-21.88634 46.42128,-48.88027c-0.00641,-11.20496 -3.62837,-21.49448 -9.64678,-29.7369l0.00004,0.00001z"/>
  <path id="svg_50" stroke="#000000" d="m63.16515,34.53386c-4.05866,-0.01638 -8.44923,0.92837 -11.09296,3.96634c-2.05887,2.23957 -4.2252,4.6171 -4.69882,7.61604c-1.06661,5.29713 -1.01487,10.90126 0.74973,16.06938c1.02249,2.56644 3.38726,4.42227 4.813,6.79544c1.8838,2.48498 2.77436,5.50575 2.52472,8.51786c4.97646,0 9.95291,0 14.92936,0c0.01632,-4.50448 3.07725,-8.2086 5.80536,-11.70879c1.90472,-2.0594 3.137,-4.55418 3.57149,-7.22174c0.83954,-4.78099 1.03011,-9.89717 -0.91325,-14.48169c-1.84515,-3.50762 -4.10588,-7.35681 -8.42703,-8.68617c-2.31706,-0.77338 -4.81719,-0.90364 -7.26159,-0.86666l-0.00001,-0.00001zm-7.61286,42.65647c5.0114,0 10.02279,0 15.03418,0c-0.89931,1.68201 -2.0399,3.52605 -1.40859,5.43571c-0.83586,1.66039 0.23413,3.31371 -1.14136,4.83307c-0.50649,2.08232 -3.39007,2.24452 -5.32158,2.30151c-2.08729,0.21176 -4.40742,-0.31784 -5.20356,-2.30507c-1.65603,-1.06272 0.33995,-2.3572 -0.94321,-3.55187c1.47962,-1.46801 -1.10058,-2.23558 -0.18278,-3.82908c-0.25211,-1.08851 -1.18032,-1.59666 -0.8331,-2.88427l0,0zm-0.03266,0.00469c5.01139,0 10.02278,0 15.03418,0c-0.37761,1.63421 -2.0108,3.17924 -1.38987,4.82397c0.35336,1.36548 -1.11686,2.48322 -0.23476,3.92514c-0.67197,1.72998 -2.01697,3.68382 -4.30438,3.67826c-2.20963,0.00343 -5.20943,0.67382 -6.5786,-1.33938c-0.51782,-1.21318 -2.18997,-1.94058 -0.9061,-3.25709c-1.59193,-1.09117 1.06763,-2.70709 -0.97828,-3.42619c0.97278,-1.72223 -1.04937,-2.7132 -0.64219,-4.40471l0,0l0,0zm-0.06291,-0.03614c5.0114,0 10.02279,0 15.03419,0c-0.37761,1.63421 -2.01079,3.17924 -1.38987,4.82398c0.35335,1.36547 -1.11686,2.48321 -0.23476,3.92513c-0.86906,1.25964 -1.79972,3.31641 -3.62094,3.46423c-1.99883,0.02159 -3.99765,0.04317 -5.99648,0.06476c-1.36952,-1.34182 -3.32316,-2.90807 -2.24971,-4.69718c-1.51444,-0.96973 1.18809,-2.53906 -0.90023,-3.17622c0.97278,-1.72222 -1.04937,-2.71319 -0.6422,-4.4047l0,0l0,0zm4.10855,12.05318c2.1237,0 4.2474,0 6.3711,0c-0.68825,0.45482 -1.1048,1.51407 -2.101,1.28388c-1.02421,-0.07318 -2.17453,0.10966 -3.12143,-0.12046c-0.38289,-0.38781 -0.76578,-0.77562 -1.14866,-1.16342l-0.00001,0zm2.31227,-12.14244c-0.73446,-9.87794 -1.48429,-14.06557 -4.24965,-20.04327c-2.76536,-5.9777 -0.59452,-3.98328 5.58435,-4.62986c6.17888,-0.64657 2.7731,1.86403 2.77562,6.47912c0.00251,4.61509 0.36007,6.92863 0.76168,10.9334c-0.3969,3.87799 0.37077,3.90442 -0.57458,7.01013" stroke-width="0" fill="#ff7f00"/>
  <text id="svg_51" xml:space="preserve" text-anchor="middle" font-family="Fantasy" font-size="24" y="133.28128" x="19.515625" stroke-linecap="null" stroke-linejoin="null" stroke-dasharray="null" stroke-width="0" stroke="#000000" fill="#7f7f7f">li.</text>
  <text id="svg_52" xml:space="preserve" text-anchor="middle" font-family="Fantasy" font-size="24" y="133.284393" x="71.507813" stroke-linecap="null" stroke-linejoin="null" stroke-dasharray="null" stroke-width="0" stroke="#000000" fill="#000000">mendivil</text>
 </g>
</svg>